<svg xmlns="http://www.w3.org/2000/svg" viewBox="0 0 248 148.5">
  <style>
    @keyframes wave {
      0% {
        transform: translateX(0%);
        opacity: 1;
      }
      50% {
        opacity: 0.8;
      }
      100% {
        transform: translateX(-10%);
        opacity: 1;
      }
    }
    
    .wave-top {
      animation: wave 3s ease-in-out infinite alternate;
    }
    
    .wave-bottom {
      animation: wave 3s ease-in-out infinite alternate-reverse;
    }
  </style>

  <g>
    <!-- Top wave -->
    <path
      class="wave-top"
      fill="#38bdf8"
      d="M124 148.5c-33.2 0-53.2-16.6-60-49.7c12 16.6 26 22.8 42.1 18.7c9.2-2.3 15.7-9 23-16.5c11.8-12.2 25.5-26.3 55.5-26.3c33.1 0 53.2 16.6 60 49.7c-12-16.6-26-22.8-42.1-18.7c-9.2 2.3-15.7 9-23 16.5c-11.8 12.2-25.5 26.3-55.5 26.3z"
    />
    
    <!-- Bottom wave -->
    <path
      class="wave-bottom"
      fill="#38bdf8"
      d="M64 74.2c-33.2 0-53.2-16.6-60-49.7C16 41.1 30.1 47.3 46.1 43.2c9.2-2.3 15.7-9 23-16.5C80.9 14.5 94.6.4 124.6.4c33.1 0 53.2 16.6 60 49.7c-12-16.6-26-22.8-42.1-18.7c-9.2 2.3-15.7 9-23 16.5c-11.8 12.2-25.5 26.3-55.5 26.3z"
    />
  </g>
</svg>
