<svg width="14" height="14" viewBox="0 0 14 14" fill="none" xmlns="http://www.w3.org/2000/svg">
<g clip-path="url(#clip0_202_10)">
<path d="M12.875 1.125H1.125C0.848858 1.125 0.625 1.34886 0.625 1.625V9.875C0.625 10.1511 0.848858 10.375 1.125 10.375H12.875C13.1511 10.375 13.375 10.1511 13.375 9.875V1.625C13.375 1.34886 13.1511 1.125 12.875 1.125Z" fill="#FF7972"/>
<path fill-rule="evenodd" clip-rule="evenodd" d="M1.25 1.75V9.75H12.75V1.75H1.25ZM0 1.625C0 1.00368 0.50368 0.5 1.125 0.5H12.875C13.4963 0.5 14 1.00368 14 1.625V9.875C14 10.4963 13.4963 11 12.875 11H8.73852L9.28852 12.375H10C10.3452 12.375 10.625 12.6548 10.625 13C10.625 13.3452 10.3452 13.625 10 13.625H4C3.65482 13.625 3.375 13.3452 3.375 13C3.375 12.6548 3.65482 12.375 4 12.375H4.71148L5.26148 11H1.125C0.50368 11 0 10.4963 0 9.875V1.625ZM4.90674 4.84954C5.16882 4.6249 5.19917 4.23033 4.97454 3.96826C4.7499 3.70618 4.35533 3.67583 4.09326 3.90046L2.34326 5.40046C2.20358 5.52019 2.12374 5.69537 2.12502 5.87934C2.12629 6.0633 2.20856 6.23736 2.34988 6.35514L3.84988 7.60514C4.11506 7.82612 4.50916 7.79029 4.73014 7.52512C4.95112 7.25994 4.91529 6.86584 4.65012 6.64486L3.71821 5.86828L4.90674 4.84954ZM9.26986 3.97488C9.49084 3.70971 9.88494 3.67388 10.1501 3.89486L11.6501 5.14486C11.7914 5.26264 11.8737 5.4367 11.875 5.62066C11.8763 5.80463 11.7964 5.97981 11.6567 6.09954L9.90674 7.59954C9.64467 7.82417 9.2501 7.79382 9.02547 7.53174C8.80083 7.26967 8.83118 6.8751 9.09326 6.65046L10.2818 5.63172L9.34988 4.85514C9.08471 4.63416 9.04888 4.24006 9.26986 3.97488ZM8.34293 3.69764C8.45208 3.37018 8.27511 3.01623 7.94764 2.90707C7.62018 2.79792 7.26623 2.97489 7.15707 3.30236L5.65707 7.80236C5.54792 8.12982 5.72489 8.48377 6.05236 8.59293C6.37982 8.70208 6.73377 8.52511 6.84293 8.19764L8.34293 3.69764Z" fill="#0C098C"/>
</g>
<defs>
<clipPath id="clip0_202_10">
<rect width="14" height="14" fill="white"/>
</clipPath>
</defs>
</svg>
